<svg xmlns="http://www.w3.org/2000/svg" viewBox="0 0 1200 800" width="1200" height="800" preserveAspectRatio="xMidYMid meet" role="img" aria-labelledby="survivor-facade-title">
  <title id="survivor-facade-title">Pantheon facade for Survivor — palm columns, torch pediment, woven-rope frieze</title>
  <rect width="1200" height="800" fill="#0E2A2A"/>

  <g id="pediment" transform="translate(0 40)">
    <g stroke="#EFE2BD" stroke-width="6" fill="none" stroke-linejoin="round">
      <path d="M 30 230 L 600 18 L 1170 230 Z"/>
      <line x1="20" y1="230" x2="1180" y2="230"/>
      <line x1="14" y1="218" x2="1186" y2="218"/>
    </g>
    <g stroke="#EFE2BD" stroke-width="4" fill="none" stroke-linecap="round">
      <path d="M 600 210 Q 420 180 320 95"/>
      <path d="M 600 210 Q 780 180 880 95"/>
      <path d="M 380 115 L 360 95"/>
      <path d="M 430 145 L 410 130"/>
      <path d="M 490 175 L 472 160"/>
      <path d="M 820 115 L 840 95"/>
      <path d="M 770 145 L 790 130"/>
      <path d="M 710 175 L 728 160"/>
    </g>
    <rect x="590" y="100" width="20" height="100" fill="#EFE2BD"/>
    <path d="M 600 30 Q 568 70 580 110 Q 590 95 600 100 Q 610 95 620 110 Q 632 70 600 30 Z" fill="#D55E36" stroke="#EFE2BD" stroke-width="3" stroke-linejoin="round"/>
    <rect x="578" y="98" width="44" height="12" fill="#EFE2BD"/>
  </g>

  <g id="frieze" transform="translate(0 280)">
    <g stroke="#EFE2BD" stroke-width="3" fill="none" stroke-linecap="round">
      <line x1="0" y1="10" x2="1200" y2="10"/>
      <line x1="0" y1="70" x2="1200" y2="70"/>
    </g>
    <g stroke="#EFE2BD" stroke-width="3" fill="none" stroke-linecap="round">
      <g transform="translate(0 0)">
        <path d="M 0 40 Q 20 10 40 40 Q 60 70 80 40"/>
        <path d="M 0 40 Q 20 70 40 40 Q 60 10 80 40"/>
      </g>
      <g transform="translate(80 0)">
        <path d="M 0 40 Q 20 10 40 40 Q 60 70 80 40"/>
        <path d="M 0 40 Q 20 70 40 40 Q 60 10 80 40"/>
      </g>
      <g transform="translate(160 0)">
        <path d="M 0 40 Q 20 10 40 40 Q 60 70 80 40"/>
        <path d="M 0 40 Q 20 70 40 40 Q 60 10 80 40"/>
      </g>
      <g transform="translate(240 0)">
        <path d="M 0 40 Q 20 10 40 40 Q 60 70 80 40"/>
        <path d="M 0 40 Q 20 70 40 40 Q 60 10 80 40"/>
      </g>
      <g transform="translate(320 0)">
        <path d="M 0 40 Q 20 10 40 40 Q 60 70 80 40"/>
        <path d="M 0 40 Q 20 70 40 40 Q 60 10 80 40"/>
      </g>
      <g transform="translate(400 0)">
        <path d="M 0 40 Q 20 10 40 40 Q 60 70 80 40"/>
        <path d="M 0 40 Q 20 70 40 40 Q 60 10 80 40"/>
      </g>
      <g transform="translate(480 0)">
        <path d="M 0 40 Q 20 10 40 40 Q 60 70 80 40"/>
        <path d="M 0 40 Q 20 70 40 40 Q 60 10 80 40"/>
      </g>
      <g transform="translate(560 0)">
        <path d="M 0 40 Q 20 10 40 40 Q 60 70 80 40"/>
        <path d="M 0 40 Q 20 70 40 40 Q 60 10 80 40"/>
      </g>
      <g transform="translate(640 0)">
        <path d="M 0 40 Q 20 10 40 40 Q 60 70 80 40"/>
        <path d="M 0 40 Q 20 70 40 40 Q 60 10 80 40"/>
      </g>
      <g transform="translate(720 0)">
        <path d="M 0 40 Q 20 10 40 40 Q 60 70 80 40"/>
        <path d="M 0 40 Q 20 70 40 40 Q 60 10 80 40"/>
      </g>
      <g transform="translate(800 0)">
        <path d="M 0 40 Q 20 10 40 40 Q 60 70 80 40"/>
        <path d="M 0 40 Q 20 70 40 40 Q 60 10 80 40"/>
      </g>
      <g transform="translate(880 0)">
        <path d="M 0 40 Q 20 10 40 40 Q 60 70 80 40"/>
        <path d="M 0 40 Q 20 70 40 40 Q 60 10 80 40"/>
      </g>
      <g transform="translate(960 0)">
        <path d="M 0 40 Q 20 10 40 40 Q 60 70 80 40"/>
        <path d="M 0 40 Q 20 70 40 40 Q 60 10 80 40"/>
      </g>
      <g transform="translate(1040 0)">
        <path d="M 0 40 Q 20 10 40 40 Q 60 70 80 40"/>
        <path d="M 0 40 Q 20 70 40 40 Q 60 10 80 40"/>
      </g>
      <g transform="translate(1120 0)">
        <path d="M 0 40 Q 20 10 40 40 Q 60 70 80 40"/>
        <path d="M 0 40 Q 20 70 40 40 Q 60 10 80 40"/>
      </g>
    </g>
  </g>

  <g id="column-1" transform="translate(120 280)">
    <g stroke="#EFE2BD" stroke-width="3" fill="none" stroke-linecap="round" stroke-linejoin="round">
      <rect x="20" y="408" width="120" height="28"/>
      <rect x="30" y="392" width="100" height="16"/>
    </g>
    <path d="M 56 392 L 64 140 L 96 140 L 104 392 Z" fill="none" stroke="#EFE2BD" stroke-width="3" stroke-linejoin="round"/>
    <g stroke="#EFE2BD" stroke-width="2" fill="none" opacity="0.7">
      <path d="M 59 360 Q 80 365 101 360"/>
      <path d="M 60 320 Q 80 325 100 320"/>
      <path d="M 61 280 Q 80 285 99 280"/>
      <path d="M 62 240 Q 80 245 98 240"/>
      <path d="M 63 200 Q 80 205 97 200"/>
      <path d="M 63 165 Q 80 170 97 165"/>
    </g>
    <circle cx="68" cy="148" r="10" fill="#D55E36"/>
    <circle cx="92" cy="155" r="9" fill="#D55E36"/>
    <g stroke="#EFE2BD" stroke-width="3" fill="none" stroke-linecap="round">
      <path d="M 80 140 Q 32 102 12 34"/>
      <path d="M 80 140 Q 52 80 40 8"/>
      <path d="M 80 140 Q 80 70 78 4"/>
      <path d="M 80 140 Q 108 80 120 12"/>
      <path d="M 80 140 Q 128 100 148 32"/>
    </g>
  </g>

  <g id="column-2" transform="translate(320 280)">
    <g stroke="#EFE2BD" stroke-width="3" fill="none" stroke-linecap="round" stroke-linejoin="round">
      <rect x="20" y="408" width="120" height="28"/>
      <rect x="30" y="392" width="100" height="16"/>
    </g>
    <path d="M 56 392 L 64 140 L 96 140 L 104 392 Z" fill="none" stroke="#EFE2BD" stroke-width="3" stroke-linejoin="round"/>
    <g stroke="#EFE2BD" stroke-width="2" fill="none" opacity="0.7">
      <path d="M 59 360 Q 80 365 101 360"/>
      <path d="M 60 320 Q 80 325 100 320"/>
      <path d="M 61 280 Q 80 285 99 280"/>
      <path d="M 62 240 Q 80 245 98 240"/>
      <path d="M 63 200 Q 80 205 97 200"/>
      <path d="M 63 165 Q 80 170 97 165"/>
    </g>
    <circle cx="66" cy="152" r="9" fill="#D55E36"/>
    <circle cx="94" cy="148" r="10" fill="#D55E36"/>
    <g stroke="#EFE2BD" stroke-width="3" fill="none" stroke-linecap="round">
      <path d="M 80 140 Q 28 96 6 26"/>
      <path d="M 80 140 Q 48 76 34 6"/>
      <path d="M 80 140 Q 78 70 76 4"/>
      <path d="M 80 140 Q 112 78 126 10"/>
      <path d="M 80 140 Q 132 96 154 28"/>
    </g>
  </g>

  <g id="column-3-center" transform="translate(520 280)">
    <g stroke="#EFE2BD" stroke-width="3" fill="none" stroke-linecap="round" stroke-linejoin="round">
      <rect x="20" y="408" width="120" height="28"/>
      <rect x="30" y="392" width="100" height="16"/>
    </g>
    <path d="M 56 392 L 64 140 L 96 140 L 104 392 Z" fill="none" stroke="#EFE2BD" stroke-width="3" stroke-linejoin="round"/>
    <g stroke="#EFE2BD" stroke-width="2" fill="none" opacity="0.7">
      <path d="M 59 360 Q 80 365 101 360"/>
      <path d="M 60 320 Q 80 325 100 320"/>
      <path d="M 61 280 Q 80 285 99 280"/>
      <path d="M 62 240 Q 80 245 98 240"/>
      <path d="M 63 200 Q 80 205 97 200"/>
      <path d="M 63 165 Q 80 170 97 165"/>
    </g>
    <circle cx="68" cy="148" r="10" fill="#D55E36"/>
    <circle cx="92" cy="155" r="9" fill="#D55E36"/>
    <g stroke="#EFE2BD" stroke-width="3" fill="none" stroke-linecap="round">
      <path d="M 80 140 Q 30 100 8 30"/>
      <path d="M 80 140 Q 50 80 38 8"/>
      <path d="M 80 140 Q 80 70 78 4"/>
      <path d="M 80 140 Q 110 80 122 8"/>
      <path d="M 80 140 Q 130 100 152 30"/>
    </g>
  </g>

  <g id="column-4" transform="translate(720 280)">
    <g stroke="#EFE2BD" stroke-width="3" fill="none" stroke-linecap="round" stroke-linejoin="round">
      <rect x="20" y="408" width="120" height="28"/>
      <rect x="30" y="392" width="100" height="16"/>
    </g>
    <path d="M 56 392 L 64 140 L 96 140 L 104 392 Z" fill="none" stroke="#EFE2BD" stroke-width="3" stroke-linejoin="round"/>
    <g stroke="#EFE2BD" stroke-width="2" fill="none" opacity="0.7">
      <path d="M 59 360 Q 80 365 101 360"/>
      <path d="M 60 320 Q 80 325 100 320"/>
      <path d="M 61 280 Q 80 285 99 280"/>
      <path d="M 62 240 Q 80 245 98 240"/>
      <path d="M 63 200 Q 80 205 97 200"/>
      <path d="M 63 165 Q 80 170 97 165"/>
    </g>
    <circle cx="66" cy="152" r="9" fill="#D55E36"/>
    <circle cx="94" cy="148" r="10" fill="#D55E36"/>
    <g stroke="#EFE2BD" stroke-width="3" fill="none" stroke-linecap="round">
      <path d="M 80 140 Q 28 96 6 26"/>
      <path d="M 80 140 Q 48 76 34 6"/>
      <path d="M 80 140 Q 78 70 76 4"/>
      <path d="M 80 140 Q 112 78 126 10"/>
      <path d="M 80 140 Q 132 96 154 28"/>
    </g>
  </g>

  <g id="column-5" transform="translate(920 280)">
    <g stroke="#EFE2BD" stroke-width="3" fill="none" stroke-linecap="round" stroke-linejoin="round">
      <rect x="20" y="408" width="120" height="28"/>
      <rect x="30" y="392" width="100" height="16"/>
    </g>
    <path d="M 56 392 L 64 140 L 96 140 L 104 392 Z" fill="none" stroke="#EFE2BD" stroke-width="3" stroke-linejoin="round"/>
    <g stroke="#EFE2BD" stroke-width="2" fill="none" opacity="0.7">
      <path d="M 59 360 Q 80 365 101 360"/>
      <path d="M 60 320 Q 80 325 100 320"/>
      <path d="M 61 280 Q 80 285 99 280"/>
      <path d="M 62 240 Q 80 245 98 240"/>
      <path d="M 63 200 Q 80 205 97 200"/>
      <path d="M 63 165 Q 80 170 97 165"/>
    </g>
    <circle cx="68" cy="148" r="10" fill="#D55E36"/>
    <circle cx="92" cy="155" r="9" fill="#D55E36"/>
    <g stroke="#EFE2BD" stroke-width="3" fill="none" stroke-linecap="round">
      <path d="M 80 140 Q 32 102 12 34"/>
      <path d="M 80 140 Q 52 80 40 8"/>
      <path d="M 80 140 Q 80 70 78 4"/>
      <path d="M 80 140 Q 108 80 120 12"/>
      <path d="M 80 140 Q 128 100 148 32"/>
    </g>
  </g>

  <g id="ground" stroke="#EFE2BD" stroke-width="5" fill="none">
    <line x1="0" y1="720" x2="1200" y2="720"/>
    <line x1="0" y1="740" x2="1200" y2="740"/>
    <line x1="0" y1="760" x2="1200" y2="760"/>
  </g>

  <g id="ornament-dispersal">
    <g transform="translate(220 770)">
      <circle cx="0" cy="0" r="6" fill="none" stroke="#EFE2BD" stroke-width="2"/>
      <path d="M -10 0 Q 0 -8 10 0 Q 0 8 -10 0 Z" fill="#D55E36" stroke="#EFE2BD" stroke-width="1.5"/>
    </g>
    <g transform="translate(600 778)">
      <circle cx="0" cy="0" r="7" fill="#D55E36" stroke="#EFE2BD" stroke-width="2"/>
    </g>
    <g transform="translate(980 770)">
      <circle cx="0" cy="0" r="6" fill="none" stroke="#EFE2BD" stroke-width="2"/>
      <path d="M -10 0 Q 0 -8 10 0 Q 0 8 -10 0 Z" fill="#D55E36" stroke="#EFE2BD" stroke-width="1.5"/>
    </g>
  </g>
</svg>
