<svg xmlns="http://www.w3.org/2000/svg" viewBox="0 0 320 320" width="320" height="320" role="img" aria-labelledby="survivor-sigil-title">
  <title id="survivor-sigil-title">Pantheon sigil for Survivor — pediment triangle, torch flame, palm-frond rays</title>
  <rect width="320" height="320" fill="#0E2A2A"/>
  <g stroke="#EFE2BD" stroke-width="6" fill="none" stroke-linejoin="round">
    <path d="M 32 128 L 160 32 L 288 128"/>
  </g>
  <rect x="152" y="88" width="16" height="56" fill="#EFE2BD"/>
  <path d="M 160 48 Q 136 72 144 104 Q 152 92 160 96 Q 168 92 176 104 Q 184 72 160 48 Z" fill="#D55E36"/>
  <g stroke="#EFE2BD" stroke-width="4" fill="none">
    <path d="M 160 144 Q 88 200 56 280"/>
    <path d="M 160 144 Q 128 224 120 280"/>
    <path d="M 160 144 Q 160 224 160 288"/>
    <path d="M 160 144 Q 192 224 200 280"/>
    <path d="M 160 144 Q 232 200 264 280"/>
  </g>
</svg>
